# xmcd CD database file
#
# Track frame offsets:
#	150
#	14657
#	28470
#	46789
#	58359
#	72624
#	90248
#	105768
#	119990
#	133586
#	148883
#	162317
#	181337
#	194203
#
# Disc length: 2840 seconds
#
# Revision: 0
# Processed by: cddbd v1.5.2PL0 Copyright (c) Steve Scherf et al.
# Submitted via: CDex 1.78
#
DISCID=db0b160e
DTITLE=Kevin Greaves - Daddys Radio Part II
DYEAR=2014
DGENRE=Country
TTITLE0=Above And Beyond
TTITLE1=The Great Snowman
TTITLE2=Anna
TTITLE3=Tumbling Tumbleweeds
TTITLE4=Fool Such As I
TTITLE5=All For The Love of Sunshine
TTITLE6=Daddy Frank The Guitar Man
TTITLE7=Saginaw, Michigan
TTITLE8=Statue Of a Fool
TTITLE9=16 Tons
TTITLE10=Hold Me Thrill Me Kiss Me
TTITLE11=(Old Dogs, Children and) Watermelon Wine
TTITLE12=It's Only Make Believe
TTITLE13=Folsom Prison Blues
EXTD=YEAR: 2014
EXTT0=
EXTT1=
EXTT2=
EXTT3=
EXTT4=
EXTT5=
EXTT6=
EXTT7=
EXTT8=
EXTT9=
EXTT10=
EXTT11=
EXTT12=
EXTT13=
PLAYORDER=
